<svg xmlns="http://www.w3.org/2000/svg" viewBox="0 0 497.359 497.36">
  <circle cx="386.559" cy="206.234" r="80.895"/>
  <path d="M212.304 221.333l-101.292 72.561c4.385-.899 9.206-1.451 14.585-1.451 24.277 0 37.733 10.773 46.638 17.902 6.524 5.226 8.722 6.984 15.527 6.984 6.806 0 9.004-1.76 15.529-6.984 8.904-7.129 22.361-17.902 46.639-17.902 24.276 0 37.733 10.773 46.639 17.902 6.525 5.226 8.725 6.984 15.531 6.984 6.805 0 9.004-1.76 15.529-6.984 2.967-2.375 6.457-5.154 10.67-7.806l-70.828-119.685-96.774-72.232-110.56 31.361-13.907 63.791 114.974-22.583 51.1 38.142z"/>
  <path d="M450.717 329.981c-6.525 5.225-8.727 6.984-15.535 6.984s-9.008-1.761-15.535-6.984c-8.904-7.129-22.363-17.902-46.641-17.902s-37.734 10.773-46.639 17.902c-6.523 5.225-8.723 6.984-15.529 6.984-6.809 0-9.004-1.761-15.531-6.984-8.904-7.129-22.361-17.902-46.639-17.902-24.277 0-37.733 10.773-46.638 17.902-6.524 5.225-8.722 6.984-15.529 6.984-6.806 0-9.003-1.761-15.527-6.984-8.905-7.129-22.361-17.902-46.638-17.902-24.277 0-37.734 10.773-46.639 17.902-6.525 5.225-8.723 6.984-15.53 6.984-6.806 0-9.004-1.761-15.529-6.984-8.904-7.129-22.361-17.902-46.638-17.902v49.773c6.806 0 9.004 1.76 15.529 6.982 8.904 7.131 22.361 17.903 46.638 17.903 24.278 0 37.734-10.772 46.639-17.902 6.524-5.225 8.723-6.983 15.53-6.983 6.806 0 9.004 1.76 15.528 6.982 8.904 7.131 22.361 17.903 46.638 17.903 24.277 0 37.733-10.772 46.638-17.903 6.525-5.224 8.723-6.982 15.529-6.982 6.808 0 9.005 1.76 15.53 6.983 8.904 7.13 22.361 17.902 46.641 17.902 24.275 0 37.732-10.772 46.637-17.903 6.525-5.224 8.723-6.982 15.531-6.982s9.008 1.761 15.533 6.983c8.904 7.13 22.363 17.902 46.643 17.902s37.736-10.772 46.641-17.902c6.527-5.224 8.727-6.983 15.535-6.983v-49.773c-24.28-.001-37.737 10.773-46.643 17.902z"/>
</svg>
