<svg viewBox="0 0 460.394 460.394" xmlns="http://www.w3.org/2000/svg">
  <path d="M328.014 129.414c23.976 8.385 50.209-4.254 58.594-28.229 8.385-23.976-4.254-50.209-28.229-58.594s-50.209 4.254-58.594 28.229a45.987 45.987 0 0 0 28.229 58.594zM311.619 34.28a6 6 0 1 0 10.811-5.208l-6.641-13.784a6 6 0 0 0-10.811 5.209zm64.396 125.834a6 6 0 0 0 5.4-8.6l-6.641-13.785a6 6 0 0 0-10.811 5.208l6.641 13.785a6 6 0 0 0 5.411 3.392zm21.513-94.283a5.987 5.987 0 0 0 2.6-.6l13.784-6.634a6 6 0 1 0-5.209-10.81l-13.784 6.641a6 6 0 0 0 2.609 11.407zm-111.261 40.938l-13.785 6.641a6 6 0 0 0 5.209 10.811l13.784-6.641a6.001 6.001 0 0 0-5.208-10.811zm74.83-71.936a5.993 5.993 0 0 0 7.64-3.672l.004-.011 8.1-23.167a6 6 0 0 0-11.328-3.962l-8.1 23.167a6.001 6.001 0 0 0 3.683 7.645zm-45.879 137.171a6 6 0 0 0 5.664-4.021l8.1-23.167a6 6 0 1 0-11.313-4.001l-.014.039-8.1 23.167a6 6 0 0 0 5.664 7.983zm79.148-68.107a6 6 0 0 0 3.683 7.644l23.167 8.1a6 6 0 1 0 4.001-11.313l-.039-.014-23.168-8.1a6 6 0 0 0-7.644 3.683zm-133.15-40.21l23.168 8.1a6 6 0 1 0 4.054-11.294l-.093-.032-23.167-8.1a6 6 0 1 0-3.998 11.314l.036.012zm96.391 248.64h-53.764l4.989 39.912h56.259zM147.198 420.394h165.997v14H147.198zm0 26h165.997v14H147.198zM99.115 266.791H48.816l-8.384 33.536h52.395zm57.436 45.536h-53.764l-7.484 39.912h56.259zm263.411-12l-8.384-33.536h-50.299l6.288 33.536zm12.978 51.912l-9.978-39.912h-53.145l7.483 39.912zm-77.583-51.912l-6.288-33.536h-50.918l4.192 33.536zm-58.706-45.536h50.168l-6.8-36.268h-47.901zm62.378 0h49.549l-9.067-36.268h-47.283zm-134.832 12h-49.861l-4.192 33.536h54.053zm-55.921-48.268h-47.901l-6.8 36.268h50.168zm-77.699 93.804H37.432l-9.978 39.912h55.64zm105.621 39.912h27.999v-39.912h-55.553l-4.989 39.912zm-88.032-133.716H60.883l-9.067 36.268h49.549zm49.885 81.804l4.192-33.536h-50.918l-6.288 33.536zm66.146-81.804H180.37l-4.534 36.268h48.361zm72.542 133.716l-4.989-39.912h-55.553v39.912h27.999zm-10.681-85.448h-49.861v33.536h54.053zm-6.034-48.268h-43.827v36.268h48.361zm-77.826 145.716h55.997v44.155h-55.997z"/>
</svg>
