<svg viewBox="0 0 22 16" xmlns="http://www.w3.org/2000/svg">
  <g fill="#030104" fill-rule="nonzero">
    <path d="M15.997 14H6.003A.998.998 0 0 0 5 15c0 .553.456 1 1.003 1h9.994A.998.998 0 0 0 17 15c0-.553-.456-1-1.003-1zM11 8l3 3.999H8zM11 3.999a1 1 0 0 0 1-1.009V1.009a1 1 0 1 0-2 0V2.99c0 .557.444 1.009 1 1.009zM6.05 6.05a1.001 1.001 0 0 0-.007-1.421l-1.4-1.4a1 1 0 0 0-1.414 1.414l1.4 1.4a1.004 1.004 0 0 0 1.421.007zM20.99 10h-1.981a1 1 0 1 0-.082 1.997h2.146A1 1 0 0 0 20.99 10zM2.99 10H1.009C.452 10 0 10.443 0 11c0 .525.401.956.927.997h2.144A1 1 0 0 0 2.99 10zM18.777 3.222a.999.999 0 0 0-1.42.007l-1.4 1.4a1.004 1.004 0 0 0-.007 1.421 1.001 1.001 0 0 0 1.421-.007l1.4-1.4c.395-.395.4-1.027.006-1.421z"/>
    <path d="M5.085 11.997h2.042a3.998 3.998 0 1 1 7.746 0h2.042a5.999 5.999 0 1 0-11.83 0z"/>
  </g>
</svg>
