<svg xmlns="http://www.w3.org/2000/svg" viewBox="0 0 22 22">
  <g fill="#030104">
    <path d="M15.997 17H6.003A.998.998 0 0 0 5 18c0 .553.456 1 1.003 1h9.994A.998.998 0 0 0 17 18c0-.553-.456-1-1.003-1zM11.001 15.996l3-3.999h-6zM11 6.999a1 1 0 0 0 1-1.009V4.009a1 1 0 1 0-2 0V5.99c0 .557.444 1.009 1 1.009zM6.05 9.05a1.001 1.001 0 0 0-.007-1.421l-1.4-1.4a1 1 0 0 0-1.414 1.414l1.4 1.4a1.004 1.004 0 0 0 1.421.007zM20.99 13h-1.981a1 1 0 1 0-.082 1.997h2.146A1 1 0 0 0 20.99 13zM2.99 13H1.009C.452 13 0 13.443 0 14c0 .525.401.956.927.997h2.144A1 1 0 0 0 2.99 13zM18.777 6.222a.999.999 0 0 0-1.42.007l-1.4 1.4a1.004 1.004 0 0 0-.007 1.421 1.001 1.001 0 0 0 1.421-.007l1.4-1.4c.395-.395.4-1.027.006-1.421z"/>
    <path d="M5.085 14.997h2.042a3.998 3.998 0 1 1 7.746 0h2.042a5.999 5.999 0 1 0-11.83 0z"/>
  </g>
</svg>
