<svg viewBox="0 0 512 512.001" xmlns="http://www.w3.org/2000/svg">
  <path d="M497 271H391v-45c0-41.352-33.645-74.996-75-74.996H196c-41.355 0-75 33.644-75 74.996v45H15c-8.285 0-15 6.719-15 15v211c0 8.285 6.715 15 15 15h482c8.281 0 15-6.715 15-15V286c0-8.285-6.719-15-15-15zm-346-45c0-24.813 20.188-44.996 45-44.996h120c24.813 0 45 20.184 45 44.996v45h-30v-45c0-8.281-6.719-14.996-15-14.996-8.285 0-15 6.715-15 14.996v45h-90v-45c0-8.281-6.715-14.996-15-14.996s-15 6.715-15 14.996v45h-30zM30 301h452v30H30zm211 60v121h-90V361zm30 0h90v121h-90zm-241 0h91v121H30zm361 121V361h91v121zm0 0"/>
  <path d="M89.973 406c0 8.285-6.72 15-15 15-8.285 0-15-6.715-15-15 0-8.281 6.715-15 15-15 8.28 0 15 6.719 15 15zm120.996 0c0 8.285-6.715 15-15 15-8.281 0-15-6.715-15-15 0-8.281 6.719-15 15-15 8.285 0 15 6.719 15 15zm120 0c0 8.285-6.715 15-15 15-8.281 0-15-6.715-15-15 0-8.281 6.719-15 15-15 8.285 0 15 6.719 15 15zm120 0c0 8.285-6.715 15-15 15s-15-6.715-15-15c0-8.281 6.715-15 15-15s15 6.719 15 15zM98.734 123.52c-6.894 4.597-8.754 13.91-4.16 20.8 4.61 6.914 13.93 8.746 20.801 4.16 14.238-9.488 22.734-25.171 22.734-41.945 0-16.777-8.496-32.457-22.734-41.95-5.871-3.913-9.375-10.847-9.375-18.55s3.504-14.637 9.375-18.55c6.895-4.598 8.758-13.91 4.16-20.801-4.594-6.895-13.906-8.758-20.8-4.16C84.5 12.011 76 28.276 76 46.034s8.5 34.024 22.734 43.516c5.957 3.969 9.375 10.164 9.375 16.984 0 6.82-3.418 13.012-9.375 16.985zm-76-33.97c5.957 3.97 9.375 10.165 9.375 16.985 0 6.824-3.418 13.016-9.375 16.985-6.894 4.597-8.754 13.91-4.16 20.8 4.61 6.914 13.93 8.746 20.801 4.16 14.238-9.488 22.734-25.171 22.734-41.945 0-16.777-8.496-32.457-22.734-41.95C33.504 60.673 30 53.739 30 46.036s3.504-14.637 9.375-18.55c6.895-4.598 8.758-13.91 4.16-20.801-4.594-6.895-13.906-8.758-20.8-4.16C8.5 12.011 0 28.276 0 46.034 0 63.793 8.5 80.06 22.734 89.551zm392.332 0c14.239-9.491 22.735-25.757 22.735-43.515s-8.496-34.023-22.735-43.515c-6.89-4.594-16.207-2.73-20.8 4.16-4.594 6.894-2.73 16.207 4.16 20.8 5.87 3.915 9.379 10.852 9.379 18.555s-3.508 14.637-9.38 18.55c-14.234 9.493-22.734 25.173-22.734 41.95 0 16.774 8.5 32.457 22.735 41.945 6.883 4.586 16.199 2.747 20.8-4.16 4.598-6.89 2.735-16.203-4.16-20.8-5.957-3.973-9.375-10.165-9.375-16.985s3.418-13.015 9.375-16.984zm74.196-87.027c-6.895-4.597-16.207-2.734-20.801 4.16-4.594 6.891-2.73 16.204 4.16 20.801 5.871 3.914 9.375 10.848 9.375 18.551s-3.504 14.637-9.375 18.55c-14.234 9.493-22.734 25.173-22.734 41.95 0 16.774 8.5 32.457 22.734 41.945 6.883 4.59 16.2 2.747 20.8-4.16 4.599-6.89 2.735-16.203-4.16-20.8-5.956-3.97-9.374-10.165-9.374-16.985s3.418-13.012 9.375-16.984c14.238-9.492 22.734-25.758 22.734-43.516.004-17.758-8.496-34.023-22.734-43.512zM316 91.004c0-33.086-26.918-60-60-60-33.086 0-60 26.914-60 60 0 33.082 26.914 60 60 60 33.082 0 60-26.918 60-60zm-60 30c-16.543 0-30-13.461-30-30 0-16.543 13.457-30 30-30s30 13.457 30 30c0 16.539-13.457 30-30 30zm0 0"/>
</svg>
